# xmcd CD database file
#
# Track frame offsets:
#	150
#	14926
#	34285
#	59952
#	75375
#	94776
#	116406
#	135476
#	154832
#	168752
#
# Disc length: 2790 seconds
#
# Revision: 2
# Processed by: cddbd v1.5.1PL0 Copyright (c) Steve Scherf et al.
# Submitted via: CDex 1.51
#
DISCID=810ae40a
DTITLE=Beija - Beija
DYEAR=2002
DGENRE=
TTITLE0=Lamilaga
TTITLE1=Cendres
TTITLE2=Whole Lot Of Love
TTITLE3=Your Smile
TTITLE4=Let Me Breathe
TTITLE5=Fly With A Broken Wing
TTITLE6=Obvious
TTITLE7=Heimatvogel
TTITLE8=Angel
TTITLE9=Dors Bien
EXTD=YEAR: 2002
EXTT0=
EXTT1=
EXTT2=
EXTT3=
EXTT4=
EXTT5=
EXTT6=
EXTT7=
EXTT8=
EXTT9=
PLAYORDER=
